<?xml version="1.0" encoding="UTF-8"?>
<svg xmlns="http://www.w3.org/2000/svg" xmlns:xlink="http://www.w3.org/1999/xlink" width="360pt" height="206pt" viewBox="0 0 360 206" version="1.1">
<g id="surface8">
<path style="fill-rule:nonzero;fill:rgb(99.998474%,99.998474%,99.998474%);fill-opacity:1;stroke-width:0.03;stroke-linecap:square;stroke-linejoin:miter;stroke:rgb(99.998474%,99.998474%,99.998474%);stroke-opacity:1;stroke-miterlimit:3.239307;" d="M 73.179688 203.179688 L 73.179688 11.894531 L 417.820313 11.894531 L 417.820313 203.179688 Z M 73.179688 203.179688 " transform="matrix(1,0,0,1,-66,-5)"/>
<path style="fill-rule:nonzero;fill:rgb(83.528137%,16.862488%,11.764526%);fill-opacity:1;stroke-width:0.03;stroke-linecap:square;stroke-linejoin:miter;stroke:rgb(83.528137%,16.862488%,11.764526%);stroke-opacity:1;stroke-miterlimit:3.239307;" d="M 73.179688 203.179688 L 73.179688 107.535156 L 417.820313 107.535156 L 417.820313 203.179688 Z M 73.179688 203.179688 " transform="matrix(1,0,0,1,-66,-5)"/>
<path style="fill-rule:nonzero;fill:rgb(0%,22.3526%,65.097046%);fill-opacity:1;stroke-width:0.03;stroke-linecap:square;stroke-linejoin:miter;stroke:rgb(0%,22.3526%,65.097046%);stroke-opacity:1;stroke-miterlimit:3.239307;" d="M 73.179688 107.535156 L 73.179688 11.894531 L 204.820313 11.894531 L 204.820313 107.535156 Z M 73.179688 107.535156 " transform="matrix(1,0,0,1,-66,-5)"/>
<path style="fill-rule:nonzero;fill:rgb(99.998474%,99.998474%,99.998474%);fill-opacity:1;stroke-width:0.03;stroke-linecap:square;stroke-linejoin:miter;stroke:rgb(99.998474%,99.998474%,99.998474%);stroke-opacity:1;stroke-miterlimit:3.239307;" d="M 109.445313 59.714844 L 129.476563 67.707031 L 129.867188 87.824219 L 143.65625 71.242188 L 162.910156 77.085938 L 151.402344 58.847656 L 162.910156 42.34375 L 142.007813 47.648438 L 129.867188 31.605469 L 128.457031 53.125 Z M 109.445313 59.714844 " transform="matrix(1,0,0,1,-66,-5)"/>
</g>
</svg>
